<?xml version="1.0" encoding="UTF-8" standalone="no"?>
<!DOCTYPE svg PUBLIC "-//W3C//DTD SVG 1.1//EN"
 "http://www.w3.org/Graphics/SVG/1.1/DTD/svg11.dtd">
<!-- Generated by graphviz version 8.0.5 (20230430.1635)
 -->
<!-- Title: dependency&#45;cruiser output Pages: 1 -->
<svg width="811pt" height="458pt"
 viewBox="0.00 0.00 811.12 457.67" xmlns="http://www.w3.org/2000/svg" xmlns:xlink="http://www.w3.org/1999/xlink">
<g id="graph0" class="graph" transform="scale(1 1) rotate(0) translate(4 453.67)">
<title>dependency&#45;cruiser output</title>
<polygon fill="white" stroke="none" points="-4,4 -4,-453.67 807.12,-453.67 807.12,4 -4,4"/>
<g id="clust1" class="cluster">
<title>cluster_..</title>
<path fill="#ffffff" stroke="black" stroke-width="2" d="M341.5,-197C341.5,-197 648.62,-197 648.62,-197 654.62,-197 660.62,-203 660.62,-209 660.62,-209 660.62,-339 660.62,-339 660.62,-345 654.62,-351 648.62,-351 648.62,-351 341.5,-351 341.5,-351 335.5,-351 329.5,-345 329.5,-339 329.5,-339 329.5,-209 329.5,-209 329.5,-203 335.5,-197 341.5,-197"/>
<text text-anchor="middle" x="495.06" y="-338.45" font-family="Helvetica,sans-Serif" font-weight="bold" font-size="9.00">..</text>
</g>
<g id="clust2" class="cluster">
<title>cluster_../..</title>
<path fill="#ffffff" stroke="black" stroke-width="2" d="M349.5,-205C349.5,-205 640.62,-205 640.62,-205 646.62,-205 652.62,-211 652.62,-217 652.62,-217 652.62,-313 652.62,-313 652.62,-319 646.62,-325 640.62,-325 640.62,-325 349.5,-325 349.5,-325 343.5,-325 337.5,-319 337.5,-313 337.5,-313 337.5,-217 337.5,-217 337.5,-211 343.5,-205 349.5,-205"/>
<text text-anchor="middle" x="495.06" y="-312.45" font-family="Helvetica,sans-Serif" font-weight="bold" font-size="9.00">..</text>
</g>
<g id="clust3" class="cluster">
<title>cluster_../../project&#45;config</title>
<path fill="#ffffff" stroke="black" stroke-width="2" d="M559.12,-213C559.12,-213 632.62,-213 632.62,-213 638.62,-213 644.62,-219 644.62,-225 644.62,-225 644.62,-287 644.62,-287 644.62,-293 638.62,-299 632.62,-299 632.62,-299 559.12,-299 559.12,-299 553.12,-299 547.12,-293 547.12,-287 547.12,-287 547.12,-225 547.12,-225 547.12,-219 553.12,-213 559.12,-213"/>
<text text-anchor="middle" x="595.88" y="-286.45" font-family="Helvetica,sans-Serif" font-weight="bold" font-size="9.00">project&#45;config</text>
</g>
<g id="clust4" class="cluster">
<title>cluster_../../project&#45;config/dist</title>
<path fill="#ffffff" stroke="black" stroke-width="2" d="M567.12,-221C567.12,-221 624.62,-221 624.62,-221 630.62,-221 636.62,-227 636.62,-233 636.62,-233 636.62,-261 636.62,-261 636.62,-267 630.62,-273 624.62,-273 624.62,-273 567.12,-273 567.12,-273 561.12,-273 555.12,-267 555.12,-261 555.12,-261 555.12,-233 555.12,-233 555.12,-227 561.12,-221 567.12,-221"/>
<text text-anchor="middle" x="595.88" y="-260.45" font-family="Helvetica,sans-Serif" font-weight="bold" font-size="9.00">dist</text>
</g>
<g id="clust5" class="cluster">
<title>cluster_../../telemetry</title>
<path fill="#ffffff" stroke="black" stroke-width="2" d="M357.5,-213C357.5,-213 527.12,-213 527.12,-213 533.12,-213 539.12,-219 539.12,-225 539.12,-225 539.12,-287 539.12,-287 539.12,-293 533.12,-299 527.12,-299 527.12,-299 357.5,-299 357.5,-299 351.5,-299 345.5,-293 345.5,-287 345.5,-287 345.5,-225 345.5,-225 345.5,-219 351.5,-213 357.5,-213"/>
<text text-anchor="middle" x="442.31" y="-286.45" font-family="Helvetica,sans-Serif" font-weight="bold" font-size="9.00">telemetry</text>
</g>
<g id="clust6" class="cluster">
<title>cluster_../../telemetry/dist</title>
<path fill="#ffffff" stroke="black" stroke-width="2" d="M365.5,-221C365.5,-221 519.12,-221 519.12,-221 525.12,-221 531.12,-227 531.12,-233 531.12,-233 531.12,-261 531.12,-261 531.12,-267 525.12,-273 519.12,-273 519.12,-273 365.5,-273 365.5,-273 359.5,-273 353.5,-267 353.5,-261 353.5,-261 353.5,-233 353.5,-233 353.5,-227 359.5,-221 365.5,-221"/>
<text text-anchor="middle" x="442.31" y="-260.45" font-family="Helvetica,sans-Serif" font-weight="bold" font-size="9.00">dist</text>
</g>
<g id="clust7" class="cluster">
<title>cluster_dist</title>
<path fill="#ffffff" stroke="black" stroke-width="2" d="M20,-21C20,-21 520.75,-21 520.75,-21 526.75,-21 532.75,-27 532.75,-33 532.75,-33 532.75,-115 532.75,-115 532.75,-121 526.75,-127 520.75,-127 520.75,-127 20,-127 20,-127 14,-127 8,-121 8,-115 8,-115 8,-33 8,-33 8,-27 14,-21 20,-21"/>
<text text-anchor="middle" x="270.38" y="-114.45" font-family="Helvetica,sans-Serif" font-weight="bold" font-size="9.00">dist</text>
</g>
<g id="clust8" class="cluster">
<title>cluster_dist/commands</title>
<path fill="#ffffff" stroke="black" stroke-width="2" d="M106,-49C106,-49 309.5,-49 309.5,-49 315.5,-49 321.5,-55 321.5,-61 321.5,-61 321.5,-89 321.5,-89 321.5,-95 315.5,-101 309.5,-101 309.5,-101 106,-101 106,-101 100,-101 94,-95 94,-89 94,-89 94,-61 94,-61 94,-55 100,-49 106,-49"/>
<text text-anchor="middle" x="207.75" y="-88.45" font-family="Helvetica,sans-Serif" font-weight="bold" font-size="9.00">commands</text>
</g>
<g id="clust9" class="cluster">
<title>cluster_dist/lib</title>
<path fill="#ffffff" stroke="black" stroke-width="2" d="M362.88,-49C362.88,-49 512.75,-49 512.75,-49 518.75,-49 524.75,-55 524.75,-61 524.75,-61 524.75,-89 524.75,-89 524.75,-95 518.75,-101 512.75,-101 512.75,-101 362.88,-101 362.88,-101 356.88,-101 350.88,-95 350.88,-89 350.88,-89 350.88,-61 350.88,-61 350.88,-55 356.88,-49 362.88,-49"/>
<text text-anchor="middle" x="437.81" y="-88.45" font-family="Helvetica,sans-Serif" font-weight="bold" font-size="9.00">lib</text>
</g>
<g id="clust10" class="cluster">
<title>cluster_node_modules</title>
<path fill="#ffffff" stroke="black" stroke-width="2" d="M680.62,-8C680.62,-8 783.12,-8 783.12,-8 789.12,-8 795.12,-14 795.12,-20 795.12,-20 795.12,-344 795.12,-344 795.12,-350 789.12,-356 783.12,-356 783.12,-356 680.62,-356 680.62,-356 674.62,-356 668.62,-350 668.62,-344 668.62,-344 668.62,-20 668.62,-20 668.62,-14 674.62,-8 680.62,-8"/>
<text text-anchor="middle" x="731.88" y="-343.45" font-family="Helvetica,sans-Serif" font-weight="bold" font-size="9.00">node_modules</text>
</g>
<g id="clust11" class="cluster">
<title>cluster_node_modules/@babel</title>
<path fill="#ffffff" stroke="black" stroke-width="2" d="M696,-132C696,-132 767.75,-132 767.75,-132 773.75,-132 779.75,-138 779.75,-144 779.75,-144 779.75,-172 779.75,-172 779.75,-178 773.75,-184 767.75,-184 767.75,-184 696,-184 696,-184 690,-184 684,-178 684,-172 684,-172 684,-144 684,-144 684,-138 690,-132 696,-132"/>
<text text-anchor="middle" x="731.88" y="-171.45" font-family="Helvetica,sans-Serif" font-weight="bold" font-size="9.00">@babel</text>
</g>
<g id="clust12" class="cluster">
<title>cluster_node_modules/@iarna</title>
<path fill="#ffffff" stroke="black" stroke-width="2" d="M708.88,-192C708.88,-192 754.88,-192 754.88,-192 760.88,-192 766.88,-198 766.88,-204 766.88,-204 766.88,-232 766.88,-232 766.88,-238 760.88,-244 754.88,-244 754.88,-244 708.88,-244 708.88,-244 702.88,-244 696.88,-238 696.88,-232 696.88,-232 696.88,-204 696.88,-204 696.88,-198 702.88,-192 708.88,-192"/>
<text text-anchor="middle" x="731.88" y="-231.45" font-family="Helvetica,sans-Serif" font-weight="bold" font-size="9.00">@iarna</text>
</g>
<!-- ../../project&#45;config/dist/index.js -->
<g id="node1" class="node">
<title>../../project&#45;config/dist/index.js</title>
<g id="a_node1"><a xlink:href="../../project-config/dist/index.js" xlink:title="index.js">
<path fill="#ffffcc" stroke="black" d="M622.71,-246.88C622.71,-246.88 569.04,-246.88 569.04,-246.88 566.08,-246.88 563.12,-243.92 563.12,-240.96 563.12,-240.96 563.12,-235.04 563.12,-235.04 563.12,-232.08 566.08,-229.12 569.04,-229.12 569.04,-229.12 622.71,-229.12 622.71,-229.12 625.67,-229.12 628.62,-232.08 628.62,-235.04 628.62,-235.04 628.62,-240.96 628.62,-240.96 628.62,-243.92 625.67,-246.88 622.71,-246.88"/>
<text text-anchor="start" x="571.12" y="-235.32" font-family="Helvetica,sans-Serif" font-size="9.00">index.js </text>
<text text-anchor="start" x="604.88" y="-235.32" font-family="Helvetica,sans-Serif" font-size="8.00" fill="#808080">75%</text>
</a>
</g>
</g>
<!-- node_modules/@iarna/toml -->
<g id="node2" class="node">
<title>node_modules/@iarna/toml</title>
<g id="a_node2"><a xlink:href="node_modules/@iarna/toml" xlink:title="toml">
<polygon fill="#c40b0a" fill-opacity="0.101961" stroke="black" points="758.88,-217.88 706.85,-217.88 704.88,-215.9 704.88,-200.12 756.9,-200.12 758.88,-202.1 758.88,-217.88"/>
<polyline fill="none" stroke="black" points="756.9,-215.9 704.88,-215.9"/>
<polyline fill="none" stroke="black" points="756.9,-215.9 756.9,-200.12"/>
<polyline fill="none" stroke="black" points="756.9,-215.9 758.88,-217.88"/>
<text text-anchor="start" x="723.25" y="-205.32" font-family="Helvetica,sans-Serif" font-size="9.00" fill="#c40b0a">toml</text>
</a>
</g>
</g>
<!-- ../../project&#45;config/dist/index.js&#45;&gt;node_modules/@iarna/toml -->
<g id="edge1" class="edge">
<title>../../project&#45;config/dist/index.js&#45;&gt;node_modules/@iarna/toml</title>
<path fill="none" stroke="#000000" stroke-opacity="0.200000" d="M629,-230.74C641.38,-227.97 655.65,-224.8 668.62,-222 678.09,-219.96 688.38,-217.79 697.81,-215.82"/>
<polygon fill="#000000" fill-opacity="0.200000" stroke="#000000" stroke-opacity="0.200000" points="698.06,-217.7 703.51,-214.42 697.2,-213.59 698.06,-217.7"/>
</g>
<!-- node_modules/deepmerge -->
<g id="node3" class="node">
<title>node_modules/deepmerge</title>
<g id="a_node3"><a xlink:href="node_modules/deepmerge" xlink:title="deepmerge">
<polygon fill="#c40b0a" fill-opacity="0.101961" stroke="black" points="763.5,-299.88 702.22,-299.88 700.25,-297.9 700.25,-282.12 761.53,-282.12 763.5,-284.1 763.5,-299.88"/>
<polyline fill="none" stroke="black" points="761.53,-297.9 700.25,-297.9"/>
<polyline fill="none" stroke="black" points="761.53,-297.9 761.53,-282.12"/>
<polyline fill="none" stroke="black" points="761.53,-297.9 763.5,-299.88"/>
<text text-anchor="start" x="708.25" y="-287.32" font-family="Helvetica,sans-Serif" font-size="9.00" fill="#c40b0a">deepmerge</text>
</a>
</g>
</g>
<!-- ../../project&#45;config/dist/index.js&#45;&gt;node_modules/deepmerge -->
<g id="edge2" class="edge">
<title>../../project&#45;config/dist/index.js&#45;&gt;node_modules/deepmerge</title>
<path fill="none" stroke="#000000" stroke-opacity="0.200000" d="M611.75,-247.3C625.91,-255.81 648.06,-268.22 668.62,-276 676.42,-278.95 684.99,-281.46 693.22,-283.53"/>
<polygon fill="#000000" fill-opacity="0.200000" stroke="#000000" stroke-opacity="0.200000" points="692.69,-285.81 699.02,-285.17 693.68,-281.72 692.69,-285.81"/>
</g>
<!-- node_modules/fast&#45;glob -->
<g id="node4" class="node">
<title>node_modules/fast&#45;glob</title>
<g id="a_node4"><a xlink:href="node_modules/fast-glob" xlink:title="fast&#45;glob">
<polygon fill="#c40b0a" fill-opacity="0.101961" stroke="black" points="758.88,-269.88 706.85,-269.88 704.88,-267.9 704.88,-252.12 756.9,-252.12 758.88,-254.1 758.88,-269.88"/>
<polyline fill="none" stroke="black" points="756.9,-267.9 704.88,-267.9"/>
<polyline fill="none" stroke="black" points="756.9,-267.9 756.9,-252.12"/>
<polyline fill="none" stroke="black" points="756.9,-267.9 758.88,-269.88"/>
<text text-anchor="start" x="714.25" y="-257.32" font-family="Helvetica,sans-Serif" font-size="9.00" fill="#c40b0a">fast&#45;glob</text>
</a>
</g>
</g>
<!-- ../../project&#45;config/dist/index.js&#45;&gt;node_modules/fast&#45;glob -->
<g id="edge3" class="edge">
<title>../../project&#45;config/dist/index.js&#45;&gt;node_modules/fast&#45;glob</title>
<path fill="none" stroke="#000000" stroke-opacity="0.200000" d="M628.97,-243.51C649.7,-247.07 676.62,-251.69 697.58,-255.28"/>
<polygon fill="#000000" fill-opacity="0.200000" stroke="#000000" stroke-opacity="0.200000" points="697.17,-257.52 703.44,-256.46 697.88,-253.38 697.17,-257.52"/>
</g>
<!-- fs -->
<g id="node5" class="node">
<title>fs</title>
<g id="a_node5"><a xlink:title="fs">
<path fill="#ffffcc" stroke="grey" d="M752.96,-381.88C752.96,-381.88 710.79,-381.88 710.79,-381.88 707.83,-381.88 704.88,-378.92 704.88,-375.96 704.88,-375.96 704.88,-370.04 704.88,-370.04 704.88,-367.08 707.83,-364.12 710.79,-364.12 710.79,-364.12 752.96,-364.12 752.96,-364.12 755.92,-364.12 758.88,-367.08 758.88,-370.04 758.88,-370.04 758.88,-375.96 758.88,-375.96 758.88,-378.92 755.92,-381.88 752.96,-381.88"/>
<text text-anchor="middle" x="731.88" y="-369.32" font-family="Helvetica,sans-Serif" font-size="9.00" fill="grey">fs</text>
</a>
</g>
</g>
<!-- ../../project&#45;config/dist/index.js&#45;&gt;fs -->
<g id="edge4" class="edge">
<title>../../project&#45;config/dist/index.js&#45;&gt;fs</title>
<path fill="none" stroke="#000000" stroke-dasharray="5,2" stroke-opacity="0.200000" d="M599.56,-247.32C606.69,-270.27 628.32,-329.71 668.62,-359 677,-365.08 687.55,-368.59 697.58,-370.59"/>
<polygon fill="#000000" fill-opacity="0.200000" stroke="#000000" stroke-opacity="0.200000" points="697.14,-372.82 703.4,-371.75 697.84,-368.68 697.14,-372.82"/>
</g>
<!-- path -->
<g id="node6" class="node">
<title>path</title>
<g id="a_node6"><a xlink:title="path">
<path fill="#ffffcc" stroke="grey" d="M752.96,-411.88C752.96,-411.88 710.79,-411.88 710.79,-411.88 707.83,-411.88 704.88,-408.92 704.88,-405.96 704.88,-405.96 704.88,-400.04 704.88,-400.04 704.88,-397.08 707.83,-394.12 710.79,-394.12 710.79,-394.12 752.96,-394.12 752.96,-394.12 755.92,-394.12 758.88,-397.08 758.88,-400.04 758.88,-400.04 758.88,-405.96 758.88,-405.96 758.88,-408.92 755.92,-411.88 752.96,-411.88"/>
<text text-anchor="middle" x="731.88" y="-399.32" font-family="Helvetica,sans-Serif" font-size="9.00" fill="grey">path</text>
</a>
</g>
</g>
<!-- ../../project&#45;config/dist/index.js&#45;&gt;path -->
<g id="edge5" class="edge">
<title>../../project&#45;config/dist/index.js&#45;&gt;path</title>
<path fill="none" stroke="#000000" stroke-dasharray="5,2" stroke-opacity="0.200000" d="M603.1,-247.1C615.76,-266 644.64,-311.21 660.62,-353 666.33,-367.9 657.41,-376.65 668.62,-388 676.25,-395.72 687.12,-399.73 697.64,-401.74"/>
<polygon fill="#000000" fill-opacity="0.200000" stroke="#000000" stroke-opacity="0.200000" points="697.21,-403.96 703.46,-402.79 697.85,-399.81 697.21,-403.96"/>
</g>
<!-- node_modules/string&#45;env&#45;interpolation -->
<g id="node7" class="node">
<title>node_modules/string&#45;env&#45;interpolation</title>
<g id="a_node7"><a xlink:href="node_modules/string-env-interpolation" xlink:title="string&#45;env&#45;interpolation">
<polygon fill="#c40b0a" fill-opacity="0.101961" stroke="black" points="787.12,-329.88 678.6,-329.88 676.62,-327.9 676.62,-312.12 785.15,-312.12 787.12,-314.1 787.12,-329.88"/>
<polyline fill="none" stroke="black" points="785.15,-327.9 676.62,-327.9"/>
<polyline fill="none" stroke="black" points="785.15,-327.9 785.15,-312.12"/>
<polyline fill="none" stroke="black" points="785.15,-327.9 787.12,-329.88"/>
<text text-anchor="start" x="684.62" y="-317.32" font-family="Helvetica,sans-Serif" font-size="9.00" fill="#c40b0a">string&#45;env&#45;interpolation</text>
</a>
</g>
</g>
<!-- ../../project&#45;config/dist/index.js&#45;&gt;node_modules/string&#45;env&#45;interpolation -->
<g id="edge6" class="edge">
<title>../../project&#45;config/dist/index.js&#45;&gt;node_modules/string&#45;env&#45;interpolation</title>
<path fill="none" stroke="#000000" stroke-opacity="0.200000" d="M603.74,-247.06C615.41,-261.77 640.57,-290.77 668.62,-306 670.75,-307.16 672.97,-308.22 675.24,-309.21"/>
<polygon fill="#000000" fill-opacity="0.200000" stroke="#000000" stroke-opacity="0.200000" points="674.03,-311.38 680.38,-311.63 675.57,-307.48 674.03,-311.38"/>
</g>
<!-- ../../telemetry/dist/index.js -->
<g id="node8" class="node">
<title>../../telemetry/dist/index.js</title>
<g id="a_node8"><a xlink:href="../../telemetry/dist/index.js" xlink:title="index.js">
<path fill="#ffffcc" stroke="black" d="M421.08,-246.88C421.08,-246.88 367.42,-246.88 367.42,-246.88 364.46,-246.88 361.5,-243.92 361.5,-240.96 361.5,-240.96 361.5,-235.04 361.5,-235.04 361.5,-232.08 364.46,-229.12 367.42,-229.12 367.42,-229.12 421.08,-229.12 421.08,-229.12 424.04,-229.12 427,-232.08 427,-235.04 427,-235.04 427,-240.96 427,-240.96 427,-243.92 424.04,-246.88 421.08,-246.88"/>
<text text-anchor="start" x="369.5" y="-235.32" font-family="Helvetica,sans-Serif" font-size="9.00">index.js </text>
<text text-anchor="start" x="403.25" y="-235.32" font-family="Helvetica,sans-Serif" font-size="8.00" fill="#808080">80%</text>
</a>
</g>
</g>
<!-- ../../telemetry/dist/telemetry.js -->
<g id="node9" class="node">
<title>../../telemetry/dist/telemetry.js</title>
<g id="a_node9"><a xlink:href="../../telemetry/dist/telemetry.js" xlink:title="telemetry.js">
<path fill="#ffffcc" stroke="black" d="M517.21,-246.88C517.21,-246.88 448.54,-246.88 448.54,-246.88 445.58,-246.88 442.62,-243.92 442.62,-240.96 442.62,-240.96 442.62,-235.04 442.62,-235.04 442.62,-232.08 445.58,-229.12 448.54,-229.12 448.54,-229.12 517.21,-229.12 517.21,-229.12 520.17,-229.12 523.12,-232.08 523.12,-235.04 523.12,-235.04 523.12,-240.96 523.12,-240.96 523.12,-243.92 520.17,-246.88 517.21,-246.88"/>
<text text-anchor="start" x="450.62" y="-235.32" font-family="Helvetica,sans-Serif" font-size="9.00">telemetry.js </text>
<text text-anchor="start" x="499.38" y="-235.32" font-family="Helvetica,sans-Serif" font-size="8.00" fill="#808080">88%</text>
</a>
</g>
</g>
<!-- ../../telemetry/dist/index.js&#45;&gt;../../telemetry/dist/telemetry.js -->
<g id="edge7" class="edge">
<title>../../telemetry/dist/index.js&#45;&gt;../../telemetry/dist/telemetry.js</title>
<path fill="none" stroke="#000000" stroke-width="2" stroke-opacity="0.200000" d="M427.01,-238C429.17,-238 431.36,-238 433.58,-238"/>
<polygon fill="#000000" fill-opacity="0.200000" stroke="#000000" stroke-width="2" stroke-opacity="0.200000" points="433.15,-240.1 439.15,-238 433.15,-235.9 433.15,-240.1"/>
</g>
<!-- node_modules/@babel/runtime&#45;corejs3 -->
<g id="node10" class="node">
<title>node_modules/@babel/runtime&#45;corejs3</title>
<g id="a_node10"><a xlink:href="node_modules/@babel/runtime-corejs3" xlink:title="runtime&#45;corejs3">
<polygon fill="#c40b0a" fill-opacity="0.101961" stroke="black" points="771.75,-157.88 693.97,-157.88 692,-155.9 692,-140.12 769.78,-140.12 771.75,-142.1 771.75,-157.88"/>
<polyline fill="none" stroke="black" points="769.78,-155.9 692,-155.9"/>
<polyline fill="none" stroke="black" points="769.78,-155.9 769.78,-140.12"/>
<polyline fill="none" stroke="black" points="769.78,-155.9 771.75,-157.88"/>
<text text-anchor="start" x="700" y="-145.32" font-family="Helvetica,sans-Serif" font-size="9.00" fill="#c40b0a">runtime&#45;corejs3</text>
</a>
</g>
</g>
<!-- ../../telemetry/dist/index.js&#45;&gt;node_modules/@babel/runtime&#45;corejs3 -->
<g id="edge8" class="edge">
<title>../../telemetry/dist/index.js&#45;&gt;node_modules/@babel/runtime&#45;corejs3</title>
<path fill="none" stroke="#000000" stroke-opacity="0.200000" d="M417.27,-228.73C446.49,-216.72 499.9,-195.83 547.12,-183 593.4,-170.43 647.49,-161.04 684.95,-155.35"/>
<polygon fill="#000000" fill-opacity="0.200000" stroke="#000000" stroke-opacity="0.200000" points="685.12,-157.3 690.74,-154.33 684.5,-153.15 685.12,-157.3"/>
</g>
<!-- ../../telemetry/dist/telemetry.js&#45;&gt;../../project&#45;config/dist/index.js -->
<g id="edge10" class="edge">
<title>../../telemetry/dist/telemetry.js&#45;&gt;../../project&#45;config/dist/index.js</title>
<path fill="none" stroke="#000000" stroke-opacity="0.200000" d="M523.32,-238C533.95,-238 545.45,-238 556.04,-238"/>
<polygon fill="#000000" fill-opacity="0.200000" stroke="#000000" stroke-opacity="0.200000" points="555.86,-240.1 561.86,-238 555.86,-235.9 555.86,-240.1"/>
</g>
<!-- ../../telemetry/dist/telemetry.js&#45;&gt;path -->
<g id="edge13" class="edge">
<title>../../telemetry/dist/telemetry.js&#45;&gt;path</title>
<path fill="none" stroke="#000000" stroke-dasharray="5,2" stroke-opacity="0.200000" d="M484.77,-247.05C487.86,-273.15 500.66,-348.84 547.12,-383 570.36,-400.08 651.58,-403.04 697.88,-403.28"/>
<polygon fill="#000000" fill-opacity="0.200000" stroke="#000000" stroke-opacity="0.200000" points="697.72,-405.38 703.72,-403.3 697.73,-401.18 697.72,-405.38"/>
</g>
<!-- ../../telemetry/dist/telemetry.js&#45;&gt;node_modules/@babel/runtime&#45;corejs3 -->
<g id="edge9" class="edge">
<title>../../telemetry/dist/telemetry.js&#45;&gt;node_modules/@babel/runtime&#45;corejs3</title>
<path fill="none" stroke="#000000" stroke-opacity="0.200000" d="M513.28,-228.7C563.31,-212.87 659.74,-182.35 660.62,-182 676.15,-175.92 693.08,-168.01 706.43,-161.46"/>
<polygon fill="#000000" fill-opacity="0.200000" stroke="#000000" stroke-opacity="0.200000" points="707.23,-162.91 711.68,-158.36 705.37,-159.14 707.23,-162.91"/>
</g>
<!-- child_process -->
<g id="node11" class="node">
<title>child_process</title>
<g id="a_node11"><a xlink:title="child_process">
<path fill="#ffffcc" stroke="grey" d="M626.46,-376.88C626.46,-376.88 565.29,-376.88 565.29,-376.88 562.33,-376.88 559.38,-373.92 559.38,-370.96 559.38,-370.96 559.38,-365.04 559.38,-365.04 559.38,-362.08 562.33,-359.12 565.29,-359.12 565.29,-359.12 626.46,-359.12 626.46,-359.12 629.42,-359.12 632.38,-362.08 632.38,-365.04 632.38,-365.04 632.38,-370.96 632.38,-370.96 632.38,-373.92 629.42,-376.88 626.46,-376.88"/>
<text text-anchor="middle" x="595.88" y="-364.32" font-family="Helvetica,sans-Serif" font-size="9.00" fill="grey">child_process</text>
</a>
</g>
</g>
<!-- ../../telemetry/dist/telemetry.js&#45;&gt;child_process -->
<g id="edge11" class="edge">
<title>../../telemetry/dist/telemetry.js&#45;&gt;child_process</title>
<path fill="none" stroke="#000000" stroke-dasharray="5,2" stroke-opacity="0.200000" d="M491.86,-247.35C510.98,-269.74 559.51,-326.58 582.47,-353.47"/>
<polygon fill="#000000" fill-opacity="0.200000" stroke="#000000" stroke-opacity="0.200000" points="581.47,-354.54 586.96,-357.74 584.67,-351.81 581.47,-354.54"/>
</g>
<!-- os -->
<g id="node12" class="node">
<title>os</title>
<g id="a_node12"><a xlink:title="os">
<path fill="#ffffcc" stroke="grey" d="M616.96,-432.88C616.96,-432.88 574.79,-432.88 574.79,-432.88 571.83,-432.88 568.88,-429.92 568.88,-426.96 568.88,-426.96 568.88,-421.04 568.88,-421.04 568.88,-418.08 571.83,-415.12 574.79,-415.12 574.79,-415.12 616.96,-415.12 616.96,-415.12 619.92,-415.12 622.88,-418.08 622.88,-421.04 622.88,-421.04 622.88,-426.96 622.88,-426.96 622.88,-429.92 619.92,-432.88 616.96,-432.88"/>
<text text-anchor="middle" x="595.88" y="-420.32" font-family="Helvetica,sans-Serif" font-size="9.00" fill="grey">os</text>
</a>
</g>
</g>
<!-- ../../telemetry/dist/telemetry.js&#45;&gt;os -->
<g id="edge12" class="edge">
<title>../../telemetry/dist/telemetry.js&#45;&gt;os</title>
<path fill="none" stroke="#000000" stroke-dasharray="5,2" stroke-opacity="0.200000" d="M484.7,-247.04C487.69,-274.72 500.42,-359.27 547.12,-406 551.45,-410.33 556.91,-413.63 562.59,-416.14"/>
<polygon fill="#000000" fill-opacity="0.200000" stroke="#000000" stroke-opacity="0.200000" points="561.43,-418.34 567.78,-418.57 562.97,-414.43 561.43,-418.34"/>
</g>
<!-- dist/commands/storybook.js -->
<g id="node13" class="node">
<title>dist/commands/storybook.js</title>
<g id="a_node13"><a xlink:href="dist/commands/storybook.js" xlink:title="storybook.js">
<path fill="#ffffcc" stroke="black" d="M178.83,-74.88C178.83,-74.88 107.92,-74.88 107.92,-74.88 104.96,-74.88 102,-71.92 102,-68.96 102,-68.96 102,-63.04 102,-63.04 102,-60.08 104.96,-57.12 107.92,-57.12 107.92,-57.12 178.83,-57.12 178.83,-57.12 181.79,-57.12 184.75,-60.08 184.75,-63.04 184.75,-63.04 184.75,-68.96 184.75,-68.96 184.75,-71.92 181.79,-74.88 178.83,-74.88"/>
<text text-anchor="start" x="110" y="-63.33" font-family="Helvetica,sans-Serif" font-size="9.00">storybook.js </text>
<text text-anchor="start" x="161" y="-63.33" font-family="Helvetica,sans-Serif" font-size="8.00" fill="#808080">75%</text>
</a>
</g>
</g>
<!-- dist/lib/colors.js -->
<g id="node14" class="node">
<title>dist/lib/colors.js</title>
<g id="a_node14"><a xlink:href="dist/lib/colors.js" xlink:title="colors.js">
<path fill="#ffffcc" stroke="black" d="M510.83,-74.88C510.83,-74.88 454.92,-74.88 454.92,-74.88 451.96,-74.88 449,-71.92 449,-68.96 449,-68.96 449,-63.04 449,-63.04 449,-60.08 451.96,-57.12 454.92,-57.12 454.92,-57.12 510.83,-57.12 510.83,-57.12 513.79,-57.12 516.75,-60.08 516.75,-63.04 516.75,-63.04 516.75,-68.96 516.75,-68.96 516.75,-71.92 513.79,-74.88 510.83,-74.88"/>
<text text-anchor="start" x="457" y="-63.33" font-family="Helvetica,sans-Serif" font-size="9.00">colors.js </text>
<text text-anchor="start" x="493" y="-63.33" font-family="Helvetica,sans-Serif" font-size="8.00" fill="#808080">25%</text>
</a>
</g>
</g>
<!-- dist/commands/storybook.js&#45;&gt;dist/lib/colors.js -->
<g id="edge14" class="edge">
<title>dist/commands/storybook.js&#45;&gt;dist/lib/colors.js</title>
<path fill="none" stroke="#000000" stroke-width="2" stroke-opacity="0.200000" d="M173.2,-56.65C181.08,-54.43 189.68,-52.33 197.75,-51 299.48,-34.22 328.56,-23.59 429.62,-44 438.74,-45.84 448.25,-49.32 456.61,-52.98"/>
<polygon fill="#000000" fill-opacity="0.200000" stroke="#000000" stroke-width="2" stroke-opacity="0.200000" points="456.21,-55.03 462.54,-55.64 457.98,-51.22 456.21,-55.03"/>
</g>
<!-- dist/commands/storybookHandler.js -->
<g id="node15" class="node">
<title>dist/commands/storybookHandler.js</title>
<g id="a_node15"><a xlink:href="dist/commands/storybookHandler.js" xlink:title="storybookHandler.js">
<path fill="#ffffcc" stroke="black" d="M307.58,-74.88C307.58,-74.88 203.67,-74.88 203.67,-74.88 200.71,-74.88 197.75,-71.92 197.75,-68.96 197.75,-68.96 197.75,-63.04 197.75,-63.04 197.75,-60.08 200.71,-57.12 203.67,-57.12 203.67,-57.12 307.58,-57.12 307.58,-57.12 310.54,-57.12 313.5,-60.08 313.5,-63.04 313.5,-63.04 313.5,-68.96 313.5,-68.96 313.5,-71.92 310.54,-74.88 307.58,-74.88"/>
<text text-anchor="start" x="205.75" y="-63.33" font-family="Helvetica,sans-Serif" font-size="9.00">storybookHandler.js </text>
<text text-anchor="start" x="289.75" y="-63.33" font-family="Helvetica,sans-Serif" font-size="8.00" fill="#808080">83%</text>
</a>
</g>
</g>
<!-- dist/commands/storybook.js&#45;&gt;dist/commands/storybookHandler.js -->
<g id="edge15" class="edge">
<title>dist/commands/storybook.js&#45;&gt;dist/commands/storybookHandler.js</title>
<path fill="none" stroke="#000000" stroke-width="2" stroke-dasharray="5,2" stroke-opacity="0.200000" d="M185.11,-66C186.25,-66 187.4,-66 188.55,-66"/>
<polygon fill="#000000" fill-opacity="0.200000" stroke="#000000" stroke-width="2" stroke-opacity="0.200000" points="188.5,-68.1 194.5,-66 188.5,-63.9 188.5,-68.1"/>
</g>
<!-- node_modules/terminal&#45;link -->
<g id="node16" class="node">
<title>node_modules/terminal&#45;link</title>
<g id="a_node16"><a xlink:href="node_modules/terminal-link" xlink:title="terminal&#45;link">
<polygon fill="#c40b0a" fill-opacity="0.101961" stroke="black" points="765,-123.88 700.72,-123.88 698.75,-121.9 698.75,-106.12 763.03,-106.12 765,-108.1 765,-123.88"/>
<polyline fill="none" stroke="black" points="763.03,-121.9 698.75,-121.9"/>
<polyline fill="none" stroke="black" points="763.03,-121.9 763.03,-106.12"/>
<polyline fill="none" stroke="black" points="763.03,-121.9 765,-123.88"/>
<text text-anchor="start" x="706.75" y="-111.33" font-family="Helvetica,sans-Serif" font-size="9.00" fill="#c40b0a">terminal&#45;link</text>
</a>
</g>
</g>
<!-- dist/commands/storybook.js&#45;&gt;node_modules/terminal&#45;link -->
<g id="edge16" class="edge">
<title>dist/commands/storybook.js&#45;&gt;node_modules/terminal&#45;link</title>
<path fill="none" stroke="#000000" stroke-opacity="0.200000" d="M169.78,-75.28C214.37,-90.72 309.91,-120 393.25,-120 393.25,-120 393.25,-120 483.88,-120 557.26,-120 642.87,-117.77 691.6,-116.29"/>
<polygon fill="#000000" fill-opacity="0.200000" stroke="#000000" stroke-opacity="0.200000" points="691.58,-118.36 697.51,-116.07 691.45,-114.16 691.58,-118.36"/>
</g>
<!-- node_modules/chalk -->
<g id="node20" class="node">
<title>node_modules/chalk</title>
<g id="a_node20"><a xlink:href="node_modules/chalk" xlink:title="chalk">
<polygon fill="#c40b0a" fill-opacity="0.101961" stroke="black" points="758.88,-63.88 706.85,-63.88 704.88,-61.9 704.88,-46.12 756.9,-46.12 758.88,-48.1 758.88,-63.88"/>
<polyline fill="none" stroke="black" points="756.9,-61.9 704.88,-61.9"/>
<polyline fill="none" stroke="black" points="756.9,-61.9 756.9,-46.12"/>
<polyline fill="none" stroke="black" points="756.9,-61.9 758.88,-63.88"/>
<text text-anchor="start" x="721" y="-51.33" font-family="Helvetica,sans-Serif" font-size="9.00" fill="#c40b0a">chalk</text>
</a>
</g>
</g>
<!-- dist/lib/colors.js&#45;&gt;node_modules/chalk -->
<g id="edge23" class="edge">
<title>dist/lib/colors.js&#45;&gt;node_modules/chalk</title>
<path fill="none" stroke="#000000" stroke-opacity="0.200000" d="M517.19,-64.52C564.41,-62.41 650.3,-58.59 697.54,-56.48"/>
<polygon fill="#000000" fill-opacity="0.200000" stroke="#000000" stroke-opacity="0.200000" points="697.59,-58.54 703.49,-56.17 697.41,-54.34 697.59,-58.54"/>
</g>
<!-- dist/commands/storybookHandler.js&#45;&gt;path -->
<g id="edge21" class="edge">
<title>dist/commands/storybookHandler.js&#45;&gt;path</title>
<path fill="none" stroke="#000000" stroke-dasharray="5,2" stroke-opacity="0.200000" d="M257.87,-75.28C262.42,-106.42 280.55,-209.01 329.5,-276 400.79,-373.58 432.47,-400.82 547.12,-439 594.99,-454.94 611.59,-450.83 660.62,-439 679.11,-434.54 698.19,-424.34 711.8,-415.93"/>
<polygon fill="#000000" fill-opacity="0.200000" stroke="#000000" stroke-opacity="0.200000" points="712.7,-417.21 716.64,-412.22 710.45,-413.66 712.7,-417.21"/>
</g>
<!-- dist/commands/storybookHandler.js&#45;&gt;../../telemetry/dist/index.js -->
<g id="edge19" class="edge">
<title>dist/commands/storybookHandler.js&#45;&gt;../../telemetry/dist/index.js</title>
<path fill="none" stroke="#000000" stroke-opacity="0.200000" d="M263.97,-75.25C286.4,-103.48 354.11,-188.72 381.53,-223.25"/>
<polygon fill="#000000" fill-opacity="0.200000" stroke="#000000" stroke-opacity="0.200000" points="380.49,-224.31 385.87,-227.71 383.78,-221.7 380.49,-224.31"/>
</g>
<!-- dist/commands/storybookHandler.js&#45;&gt;dist/lib/colors.js -->
<g id="edge17" class="edge">
<title>dist/commands/storybookHandler.js&#45;&gt;dist/lib/colors.js</title>
<path fill="none" stroke="#000000" stroke-width="2" stroke-opacity="0.200000" d="M294.6,-56.67C305.77,-54.33 318.06,-52.16 329.5,-51 373.77,-46.49 385.56,-44.8 429.62,-51 435.08,-51.77 440.77,-52.97 446.3,-54.36"/>
<polygon fill="#000000" fill-opacity="0.200000" stroke="#000000" stroke-width="2" stroke-opacity="0.200000" points="446.46,-57.12 452.8,-56.67 447.56,-53.07 446.46,-57.12"/>
</g>
<!-- dist/lib/project.js -->
<g id="node17" class="node">
<title>dist/lib/project.js</title>
<g id="a_node17"><a xlink:href="dist/lib/project.js" xlink:title="project.js">
<path fill="#ffffcc" stroke="black" d="M423.71,-74.88C423.71,-74.88 364.79,-74.88 364.79,-74.88 361.83,-74.88 358.88,-71.92 358.88,-68.96 358.88,-68.96 358.88,-63.04 358.88,-63.04 358.88,-60.08 361.83,-57.12 364.79,-57.12 364.79,-57.12 423.71,-57.12 423.71,-57.12 426.67,-57.12 429.62,-60.08 429.62,-63.04 429.62,-63.04 429.62,-68.96 429.62,-68.96 429.62,-71.92 426.67,-74.88 423.71,-74.88"/>
<text text-anchor="start" x="366.88" y="-63.33" font-family="Helvetica,sans-Serif" font-size="9.00">project.js </text>
<text text-anchor="start" x="405.88" y="-63.33" font-family="Helvetica,sans-Serif" font-size="8.00" fill="#808080">75%</text>
</a>
</g>
</g>
<!-- dist/commands/storybookHandler.js&#45;&gt;dist/lib/project.js -->
<g id="edge18" class="edge">
<title>dist/commands/storybookHandler.js&#45;&gt;dist/lib/project.js</title>
<path fill="none" stroke="#000000" stroke-width="2" stroke-opacity="0.200000" d="M313.77,-66C325.78,-66 338.25,-66 349.66,-66"/>
<polygon fill="#000000" fill-opacity="0.200000" stroke="#000000" stroke-width="2" stroke-opacity="0.200000" points="349.55,-68.1 355.55,-66 349.55,-63.9 349.55,-68.1"/>
</g>
<!-- node_modules/execa -->
<g id="node18" class="node">
<title>node_modules/execa</title>
<g id="a_node18"><a xlink:href="node_modules/execa" xlink:title="execa">
<polygon fill="#c40b0a" fill-opacity="0.101961" stroke="black" points="758.88,-33.88 706.85,-33.88 704.88,-31.9 704.88,-16.12 756.9,-16.12 758.88,-18.1 758.88,-33.88"/>
<polyline fill="none" stroke="black" points="756.9,-31.9 704.88,-31.9"/>
<polyline fill="none" stroke="black" points="756.9,-31.9 756.9,-16.12"/>
<polyline fill="none" stroke="black" points="756.9,-31.9 758.88,-33.88"/>
<text text-anchor="start" x="719.5" y="-21.32" font-family="Helvetica,sans-Serif" font-size="9.00" fill="#c40b0a">execa</text>
</a>
</g>
</g>
<!-- dist/commands/storybookHandler.js&#45;&gt;node_modules/execa -->
<g id="edge20" class="edge">
<title>dist/commands/storybookHandler.js&#45;&gt;node_modules/execa</title>
<path fill="none" stroke="#000000" stroke-opacity="0.200000" d="M285.04,-56.67C298.39,-52.68 314.61,-48.4 329.5,-46 465.03,-24.12 629.31,-23.47 698.1,-24.34"/>
<polygon fill="#000000" fill-opacity="0.200000" stroke="#000000" stroke-opacity="0.200000" points="697.82,-26.45 703.84,-24.43 697.87,-22.25 697.82,-26.45"/>
</g>
<!-- dist/lib/project.js&#45;&gt;../../project&#45;config/dist/index.js -->
<g id="edge25" class="edge">
<title>dist/lib/project.js&#45;&gt;../../project&#45;config/dist/index.js</title>
<path fill="none" stroke="#000000" stroke-opacity="0.200000" d="M405.98,-75.25C439.15,-103.83 540.15,-190.85 579.21,-224.51"/>
<polygon fill="#000000" fill-opacity="0.200000" stroke="#000000" stroke-opacity="0.200000" points="577.17,-226.38 583.09,-228.71 579.91,-223.2 577.17,-226.38"/>
</g>
<!-- dist/lib/project.js&#45;&gt;dist/lib/colors.js -->
<g id="edge24" class="edge">
<title>dist/lib/project.js&#45;&gt;dist/lib/colors.js</title>
<path fill="none" stroke="#000000" stroke-width="2" stroke-opacity="0.200000" d="M429.98,-66C433.14,-66 436.36,-66 439.57,-66"/>
<polygon fill="#000000" fill-opacity="0.200000" stroke="#000000" stroke-width="2" stroke-opacity="0.200000" points="439.54,-68.1 445.54,-66 439.54,-63.9 439.54,-68.1"/>
</g>
<!-- node_modules/lodash.memoize -->
<g id="node21" class="node">
<title>node_modules/lodash.memoize</title>
<g id="a_node21"><a xlink:href="node_modules/lodash.memoize" xlink:title="lodash.memoize">
<polygon fill="#c40b0a" fill-opacity="0.101961" stroke="black" points="773.62,-93.88 692.1,-93.88 690.12,-91.9 690.12,-76.12 771.65,-76.12 773.62,-78.1 773.62,-93.88"/>
<polyline fill="none" stroke="black" points="771.65,-91.9 690.12,-91.9"/>
<polyline fill="none" stroke="black" points="771.65,-91.9 771.65,-76.12"/>
<polyline fill="none" stroke="black" points="771.65,-91.9 773.62,-93.88"/>
<text text-anchor="start" x="698.12" y="-81.33" font-family="Helvetica,sans-Serif" font-size="9.00" fill="#c40b0a">lodash.memoize</text>
</a>
</g>
</g>
<!-- dist/lib/project.js&#45;&gt;node_modules/lodash.memoize -->
<g id="edge26" class="edge">
<title>dist/lib/project.js&#45;&gt;node_modules/lodash.memoize</title>
<path fill="none" stroke="#000000" stroke-opacity="0.200000" d="M420,-75.34C427.19,-77.64 435.13,-79.79 442.62,-81 526.42,-94.55 625.71,-91.9 683.18,-88.57"/>
<polygon fill="#000000" fill-opacity="0.200000" stroke="#000000" stroke-opacity="0.200000" points="683.11,-90.62 688.97,-88.16 682.86,-86.42 683.11,-90.62"/>
</g>
<!-- dist/index.js -->
<g id="node19" class="node">
<title>dist/index.js</title>
<g id="a_node19"><a xlink:href="dist/index.js" xlink:title="index.js">
<path fill="#ffffcc" stroke="black" d="M80.08,-74.88C80.08,-74.88 21.92,-74.88 21.92,-74.88 18.96,-74.88 16,-71.92 16,-68.96 16,-68.96 16,-63.04 16,-63.04 16,-60.08 18.96,-57.12 21.92,-57.12 21.92,-57.12 80.08,-57.12 80.08,-57.12 83.04,-57.12 86,-60.08 86,-63.04 86,-63.04 86,-68.96 86,-68.96 86,-71.92 83.04,-74.88 80.08,-74.88"/>
<text text-anchor="start" x="24" y="-63.33" font-family="Helvetica,sans-Serif" font-size="9.00">index.js </text>
<text text-anchor="start" x="57.75" y="-63.33" font-family="Helvetica,sans-Serif" font-size="8.00" fill="#808080">100%</text>
</a>
</g>
</g>
<!-- dist/index.js&#45;&gt;dist/commands/storybook.js -->
<g id="edge22" class="edge">
<title>dist/index.js&#45;&gt;dist/commands/storybook.js</title>
<path fill="none" stroke="#000000" stroke-width="2" stroke-opacity="0.200000" d="M86.42,-66C88.61,-66 90.83,-66 93.06,-66"/>
<polygon fill="#000000" fill-opacity="0.200000" stroke="#000000" stroke-width="2" stroke-opacity="0.200000" points="92.68,-68.1 98.68,-66 92.68,-63.9 92.68,-68.1"/>
</g>
</g>
</svg>
