<?xml version="1.0" encoding="UTF-8" standalone="no"?>
<!DOCTYPE svg PUBLIC "-//W3C//DTD SVG 1.1//EN"
 "http://www.w3.org/Graphics/SVG/1.1/DTD/svg11.dtd">
<!-- Generated by graphviz version 8.0.5 (20230430.1635)
 -->
<!-- Title: dependency&#45;cruiser output Pages: 1 -->
<svg width="821pt" height="428pt"
 viewBox="0.00 0.00 820.62 427.85" xmlns="http://www.w3.org/2000/svg" xmlns:xlink="http://www.w3.org/1999/xlink">
<g id="graph0" class="graph" transform="scale(1 1) rotate(0) translate(4 423.85)">
<title>dependency&#45;cruiser output</title>
<polygon fill="white" stroke="none" points="-4,4 -4,-423.85 816.62,-423.85 816.62,4 -4,4"/>
<g id="clust1" class="cluster">
<title>cluster_..</title>
<path fill="#ffffff" stroke="black" stroke-width="2" d="M341.5,-242C341.5,-242 658.12,-242 658.12,-242 664.12,-242 670.12,-248 670.12,-254 670.12,-254 670.12,-384 670.12,-384 670.12,-390 664.12,-396 658.12,-396 658.12,-396 341.5,-396 341.5,-396 335.5,-396 329.5,-390 329.5,-384 329.5,-384 329.5,-254 329.5,-254 329.5,-248 335.5,-242 341.5,-242"/>
<text text-anchor="middle" x="499.81" y="-383.45" font-family="Helvetica,sans-Serif" font-weight="bold" font-size="9.00">..</text>
</g>
<g id="clust2" class="cluster">
<title>cluster_../..</title>
<path fill="#ffffff" stroke="black" stroke-width="2" d="M349.5,-250C349.5,-250 650.12,-250 650.12,-250 656.12,-250 662.12,-256 662.12,-262 662.12,-262 662.12,-358 662.12,-358 662.12,-364 656.12,-370 650.12,-370 650.12,-370 349.5,-370 349.5,-370 343.5,-370 337.5,-364 337.5,-358 337.5,-358 337.5,-262 337.5,-262 337.5,-256 343.5,-250 349.5,-250"/>
<text text-anchor="middle" x="499.81" y="-357.45" font-family="Helvetica,sans-Serif" font-weight="bold" font-size="9.00">..</text>
</g>
<g id="clust5" class="cluster">
<title>cluster_../../telemetry</title>
<path fill="#ffffff" stroke="black" stroke-width="2" d="M357.5,-258C357.5,-258 536.62,-258 536.62,-258 542.62,-258 548.62,-264 548.62,-270 548.62,-270 548.62,-332 548.62,-332 548.62,-338 542.62,-344 536.62,-344 536.62,-344 357.5,-344 357.5,-344 351.5,-344 345.5,-338 345.5,-332 345.5,-332 345.5,-270 345.5,-270 345.5,-264 351.5,-258 357.5,-258"/>
<text text-anchor="middle" x="447.06" y="-331.45" font-family="Helvetica,sans-Serif" font-weight="bold" font-size="9.00">telemetry</text>
</g>
<g id="clust6" class="cluster">
<title>cluster_../../telemetry/dist</title>
<path fill="#ffffff" stroke="black" stroke-width="2" d="M365.5,-266C365.5,-266 528.62,-266 528.62,-266 534.62,-266 540.62,-272 540.62,-278 540.62,-278 540.62,-306 540.62,-306 540.62,-312 534.62,-318 528.62,-318 528.62,-318 365.5,-318 365.5,-318 359.5,-318 353.5,-312 353.5,-306 353.5,-306 353.5,-278 353.5,-278 353.5,-272 359.5,-266 365.5,-266"/>
<text text-anchor="middle" x="447.06" y="-305.45" font-family="Helvetica,sans-Serif" font-weight="bold" font-size="9.00">dist</text>
</g>
<g id="clust3" class="cluster">
<title>cluster_../../project&#45;config</title>
<path fill="#ffffff" stroke="black" stroke-width="2" d="M568.62,-258C568.62,-258 642.12,-258 642.12,-258 648.12,-258 654.12,-264 654.12,-270 654.12,-270 654.12,-332 654.12,-332 654.12,-338 648.12,-344 642.12,-344 642.12,-344 568.62,-344 568.62,-344 562.62,-344 556.62,-338 556.62,-332 556.62,-332 556.62,-270 556.62,-270 556.62,-264 562.62,-258 568.62,-258"/>
<text text-anchor="middle" x="605.38" y="-331.45" font-family="Helvetica,sans-Serif" font-weight="bold" font-size="9.00">project&#45;config</text>
</g>
<g id="clust4" class="cluster">
<title>cluster_../../project&#45;config/dist</title>
<path fill="#ffffff" stroke="black" stroke-width="2" d="M576.62,-266C576.62,-266 634.12,-266 634.12,-266 640.12,-266 646.12,-272 646.12,-278 646.12,-278 646.12,-306 646.12,-306 646.12,-312 640.12,-318 634.12,-318 634.12,-318 576.62,-318 576.62,-318 570.62,-318 564.62,-312 564.62,-306 564.62,-306 564.62,-278 564.62,-278 564.62,-272 570.62,-266 576.62,-266"/>
<text text-anchor="middle" x="605.38" y="-305.45" font-family="Helvetica,sans-Serif" font-weight="bold" font-size="9.00">dist</text>
</g>
<g id="clust7" class="cluster">
<title>cluster_node_modules</title>
<path fill="#ffffff" stroke="black" stroke-width="2" d="M690.12,-8C690.12,-8 792.62,-8 792.62,-8 798.62,-8 804.62,-14 804.62,-20 804.62,-20 804.62,-344 804.62,-344 804.62,-350 798.62,-356 792.62,-356 792.62,-356 690.12,-356 690.12,-356 684.12,-356 678.12,-350 678.12,-344 678.12,-344 678.12,-20 678.12,-20 678.12,-14 684.12,-8 690.12,-8"/>
<text text-anchor="middle" x="741.38" y="-343.45" font-family="Helvetica,sans-Serif" font-weight="bold" font-size="9.00">node_modules</text>
</g>
<g id="clust8" class="cluster">
<title>cluster_node_modules/@babel</title>
<path fill="#ffffff" stroke="black" stroke-width="2" d="M705.5,-132C705.5,-132 777.25,-132 777.25,-132 783.25,-132 789.25,-138 789.25,-144 789.25,-144 789.25,-172 789.25,-172 789.25,-178 783.25,-184 777.25,-184 777.25,-184 705.5,-184 705.5,-184 699.5,-184 693.5,-178 693.5,-172 693.5,-172 693.5,-144 693.5,-144 693.5,-138 699.5,-132 705.5,-132"/>
<text text-anchor="middle" x="741.38" y="-171.45" font-family="Helvetica,sans-Serif" font-weight="bold" font-size="9.00">@babel</text>
</g>
<g id="clust9" class="cluster">
<title>cluster_node_modules/@iarna</title>
<path fill="#ffffff" stroke="black" stroke-width="2" d="M718.38,-192C718.38,-192 764.38,-192 764.38,-192 770.38,-192 776.38,-198 776.38,-204 776.38,-204 776.38,-232 776.38,-232 776.38,-238 770.38,-244 764.38,-244 764.38,-244 718.38,-244 718.38,-244 712.38,-244 706.38,-238 706.38,-232 706.38,-232 706.38,-204 706.38,-204 706.38,-198 712.38,-192 718.38,-192"/>
<text text-anchor="middle" x="741.38" y="-231.45" font-family="Helvetica,sans-Serif" font-weight="bold" font-size="9.00">@iarna</text>
</g>
<g id="clust10" class="cluster">
<title>cluster_src</title>
<path fill="#ffffff" stroke="black" stroke-width="2" d="M20,-59C20,-59 432.12,-59 432.12,-59 438.12,-59 444.12,-65 444.12,-71 444.12,-71 444.12,-159 444.12,-159 444.12,-165 438.12,-171 432.12,-171 432.12,-171 20,-171 20,-171 14,-171 8,-165 8,-159 8,-159 8,-71 8,-71 8,-65 14,-59 20,-59"/>
<text text-anchor="middle" x="226.06" y="-158.45" font-family="Helvetica,sans-Serif" font-weight="bold" font-size="9.00">src</text>
</g>
<g id="clust11" class="cluster">
<title>cluster_src/commands</title>
<path fill="#ffffff" stroke="black" stroke-width="2" d="M106,-93C106,-93 309.5,-93 309.5,-93 315.5,-93 321.5,-99 321.5,-105 321.5,-105 321.5,-133 321.5,-133 321.5,-139 315.5,-145 309.5,-145 309.5,-145 106,-145 106,-145 100,-145 94,-139 94,-133 94,-133 94,-105 94,-105 94,-99 100,-93 106,-93"/>
<text text-anchor="middle" x="207.75" y="-132.45" font-family="Helvetica,sans-Serif" font-weight="bold" font-size="9.00">commands</text>
</g>
<g id="clust12" class="cluster">
<title>cluster_src/lib</title>
<path fill="#ffffff" stroke="black" stroke-width="2" d="M364.38,-67C364.38,-67 424.12,-67 424.12,-67 430.12,-67 436.12,-73 436.12,-79 436.12,-79 436.12,-107 436.12,-107 436.12,-113 430.12,-119 424.12,-119 424.12,-119 364.38,-119 364.38,-119 358.38,-119 352.38,-113 352.38,-107 352.38,-107 352.38,-79 352.38,-79 352.38,-73 358.38,-67 364.38,-67"/>
<text text-anchor="middle" x="394.25" y="-106.45" font-family="Helvetica,sans-Serif" font-weight="bold" font-size="9.00">lib</text>
</g>
<!-- ../../project&#45;config/dist/index.js -->
<g id="node1" class="node">
<title>../../project&#45;config/dist/index.js</title>
<g id="a_node1"><a xlink:href="../../project-config/dist/index.js" xlink:title="index.js">
<path fill="#ffffcc" stroke="black" d="M632.21,-291.88C632.21,-291.88 578.54,-291.88 578.54,-291.88 575.58,-291.88 572.62,-288.92 572.62,-285.96 572.62,-285.96 572.62,-280.04 572.62,-280.04 572.62,-277.08 575.58,-274.12 578.54,-274.12 578.54,-274.12 632.21,-274.12 632.21,-274.12 635.17,-274.12 638.12,-277.08 638.12,-280.04 638.12,-280.04 638.12,-285.96 638.12,-285.96 638.12,-288.92 635.17,-291.88 632.21,-291.88"/>
<text text-anchor="start" x="580.62" y="-280.32" font-family="Helvetica,sans-Serif" font-size="9.00">index.js </text>
<text text-anchor="start" x="614.38" y="-280.32" font-family="Helvetica,sans-Serif" font-size="8.00" fill="#808080">75%</text>
</a>
</g>
</g>
<!-- node_modules/@iarna/toml -->
<g id="node2" class="node">
<title>node_modules/@iarna/toml</title>
<g id="a_node2"><a xlink:href="node_modules/@iarna/toml" xlink:title="toml">
<polygon fill="#c40b0a" fill-opacity="0.101961" stroke="black" points="768.38,-217.88 716.35,-217.88 714.38,-215.9 714.38,-200.12 766.4,-200.12 768.38,-202.1 768.38,-217.88"/>
<polyline fill="none" stroke="black" points="766.4,-215.9 714.38,-215.9"/>
<polyline fill="none" stroke="black" points="766.4,-215.9 766.4,-200.12"/>
<polyline fill="none" stroke="black" points="766.4,-215.9 768.38,-217.88"/>
<text text-anchor="start" x="732.75" y="-205.32" font-family="Helvetica,sans-Serif" font-size="9.00" fill="#c40b0a">toml</text>
</a>
</g>
</g>
<!-- ../../project&#45;config/dist/index.js&#45;&gt;node_modules/@iarna/toml -->
<g id="edge1" class="edge">
<title>../../project&#45;config/dist/index.js&#45;&gt;node_modules/@iarna/toml</title>
<path fill="none" stroke="#000000" stroke-opacity="0.200000" d="M638.53,-274.19C649.97,-269.59 662.01,-262.8 670.12,-253 679.2,-242.04 667.83,-231.82 678.12,-222 685.92,-214.56 696.82,-210.9 707.33,-209.23"/>
<polygon fill="#000000" fill-opacity="0.200000" stroke="#000000" stroke-opacity="0.200000" points="707.44,-211.21 713.14,-208.39 706.93,-207.04 707.44,-211.21"/>
</g>
<!-- node_modules/deepmerge -->
<g id="node3" class="node">
<title>node_modules/deepmerge</title>
<g id="a_node3"><a xlink:href="node_modules/deepmerge" xlink:title="deepmerge">
<polygon fill="#c40b0a" fill-opacity="0.101961" stroke="black" points="773,-299.88 711.72,-299.88 709.75,-297.9 709.75,-282.12 771.03,-282.12 773,-284.1 773,-299.88"/>
<polyline fill="none" stroke="black" points="771.03,-297.9 709.75,-297.9"/>
<polyline fill="none" stroke="black" points="771.03,-297.9 771.03,-282.12"/>
<polyline fill="none" stroke="black" points="771.03,-297.9 773,-299.88"/>
<text text-anchor="start" x="717.75" y="-287.32" font-family="Helvetica,sans-Serif" font-size="9.00" fill="#c40b0a">deepmerge</text>
</a>
</g>
</g>
<!-- ../../project&#45;config/dist/index.js&#45;&gt;node_modules/deepmerge -->
<g id="edge2" class="edge">
<title>../../project&#45;config/dist/index.js&#45;&gt;node_modules/deepmerge</title>
<path fill="none" stroke="#000000" stroke-opacity="0.200000" d="M638.47,-284.92C657.73,-286.07 682.32,-287.53 702.52,-288.74"/>
<polygon fill="#000000" fill-opacity="0.200000" stroke="#000000" stroke-opacity="0.200000" points="702.35,-290.89 708.46,-289.15 702.6,-286.7 702.35,-290.89"/>
</g>
<!-- node_modules/fast&#45;glob -->
<g id="node4" class="node">
<title>node_modules/fast&#45;glob</title>
<g id="a_node4"><a xlink:href="node_modules/fast-glob" xlink:title="fast&#45;glob">
<polygon fill="#c40b0a" fill-opacity="0.101961" stroke="black" points="768.38,-269.88 716.35,-269.88 714.38,-267.9 714.38,-252.12 766.4,-252.12 768.38,-254.1 768.38,-269.88"/>
<polyline fill="none" stroke="black" points="766.4,-267.9 714.38,-267.9"/>
<polyline fill="none" stroke="black" points="766.4,-267.9 766.4,-252.12"/>
<polyline fill="none" stroke="black" points="766.4,-267.9 768.38,-269.88"/>
<text text-anchor="start" x="723.75" y="-257.32" font-family="Helvetica,sans-Serif" font-size="9.00" fill="#c40b0a">fast&#45;glob</text>
</a>
</g>
</g>
<!-- ../../project&#45;config/dist/index.js&#45;&gt;node_modules/fast&#45;glob -->
<g id="edge3" class="edge">
<title>../../project&#45;config/dist/index.js&#45;&gt;node_modules/fast&#45;glob</title>
<path fill="none" stroke="#000000" stroke-opacity="0.200000" d="M638.47,-277.73C659.2,-274.33 686.12,-269.91 707.08,-266.47"/>
<polygon fill="#000000" fill-opacity="0.200000" stroke="#000000" stroke-opacity="0.200000" points="707.36,-268.38 712.94,-265.34 706.68,-264.24 707.36,-268.38"/>
</g>
<!-- fs -->
<g id="node5" class="node">
<title>fs</title>
<g id="a_node5"><a xlink:title="fs">
<path fill="#ffffcc" stroke="grey" d="M762.46,-381.88C762.46,-381.88 720.29,-381.88 720.29,-381.88 717.33,-381.88 714.38,-378.92 714.38,-375.96 714.38,-375.96 714.38,-370.04 714.38,-370.04 714.38,-367.08 717.33,-364.12 720.29,-364.12 720.29,-364.12 762.46,-364.12 762.46,-364.12 765.42,-364.12 768.38,-367.08 768.38,-370.04 768.38,-370.04 768.38,-375.96 768.38,-375.96 768.38,-378.92 765.42,-381.88 762.46,-381.88"/>
<text text-anchor="middle" x="741.38" y="-369.32" font-family="Helvetica,sans-Serif" font-size="9.00" fill="grey">fs</text>
</a>
</g>
</g>
<!-- ../../project&#45;config/dist/index.js&#45;&gt;fs -->
<g id="edge4" class="edge">
<title>../../project&#45;config/dist/index.js&#45;&gt;fs</title>
<path fill="none" stroke="#000000" stroke-dasharray="5,2" stroke-opacity="0.200000" d="M612.25,-292.15C623.15,-308.34 648.17,-341.94 678.12,-359 686.96,-364.03 697.47,-367.26 707.31,-369.32"/>
<polygon fill="#000000" fill-opacity="0.200000" stroke="#000000" stroke-opacity="0.200000" points="706.7,-371.53 712.99,-370.57 707.48,-367.4 706.7,-371.53"/>
</g>
<!-- path -->
<g id="node6" class="node">
<title>path</title>
<g id="a_node6"><a xlink:title="path">
<path fill="#ffffcc" stroke="grey" d="M762.46,-411.88C762.46,-411.88 720.29,-411.88 720.29,-411.88 717.33,-411.88 714.38,-408.92 714.38,-405.96 714.38,-405.96 714.38,-400.04 714.38,-400.04 714.38,-397.08 717.33,-394.12 720.29,-394.12 720.29,-394.12 762.46,-394.12 762.46,-394.12 765.42,-394.12 768.38,-397.08 768.38,-400.04 768.38,-400.04 768.38,-405.96 768.38,-405.96 768.38,-408.92 765.42,-411.88 762.46,-411.88"/>
<text text-anchor="middle" x="741.38" y="-399.32" font-family="Helvetica,sans-Serif" font-size="9.00" fill="grey">path</text>
</a>
</g>
</g>
<!-- ../../project&#45;config/dist/index.js&#45;&gt;path -->
<g id="edge5" class="edge">
<title>../../project&#45;config/dist/index.js&#45;&gt;path</title>
<path fill="none" stroke="#000000" stroke-dasharray="5,2" stroke-opacity="0.200000" d="M615.96,-292.35C629.76,-306.31 655.23,-333.99 670.12,-362 675.8,-372.67 669.31,-379.72 678.12,-388 685.97,-395.37 696.78,-399.31 707.19,-401.36"/>
<polygon fill="#000000" fill-opacity="0.200000" stroke="#000000" stroke-opacity="0.200000" points="706.68,-403.57 712.94,-402.45 707.36,-399.42 706.68,-403.57"/>
</g>
<!-- node_modules/string&#45;env&#45;interpolation -->
<g id="node7" class="node">
<title>node_modules/string&#45;env&#45;interpolation</title>
<g id="a_node7"><a xlink:href="node_modules/string-env-interpolation" xlink:title="string&#45;env&#45;interpolation">
<polygon fill="#c40b0a" fill-opacity="0.101961" stroke="black" points="796.62,-329.88 688.1,-329.88 686.12,-327.9 686.12,-312.12 794.65,-312.12 796.62,-314.1 796.62,-329.88"/>
<polyline fill="none" stroke="black" points="794.65,-327.9 686.12,-327.9"/>
<polyline fill="none" stroke="black" points="794.65,-327.9 794.65,-312.12"/>
<polyline fill="none" stroke="black" points="794.65,-327.9 796.62,-329.88"/>
<text text-anchor="start" x="694.12" y="-317.32" font-family="Helvetica,sans-Serif" font-size="9.00" fill="#c40b0a">string&#45;env&#45;interpolation</text>
</a>
</g>
</g>
<!-- ../../project&#45;config/dist/index.js&#45;&gt;node_modules/string&#45;env&#45;interpolation -->
<g id="edge6" class="edge">
<title>../../project&#45;config/dist/index.js&#45;&gt;node_modules/string&#45;env&#45;interpolation</title>
<path fill="none" stroke="#000000" stroke-opacity="0.200000" d="M633.83,-292.32C647.14,-296.71 663.39,-301.87 678.12,-306 683.02,-307.37 688.15,-308.73 693.27,-310.04"/>
<polygon fill="#000000" fill-opacity="0.200000" stroke="#000000" stroke-opacity="0.200000" points="692.41,-312.24 698.75,-311.67 693.44,-308.17 692.41,-312.24"/>
</g>
<!-- ../../telemetry/dist/index.js -->
<g id="node8" class="node">
<title>../../telemetry/dist/index.js</title>
<g id="a_node8"><a xlink:href="../../telemetry/dist/index.js" xlink:title="index.js">
<path fill="#ffffcc" stroke="black" d="M421.08,-291.88C421.08,-291.88 367.42,-291.88 367.42,-291.88 364.46,-291.88 361.5,-288.92 361.5,-285.96 361.5,-285.96 361.5,-280.04 361.5,-280.04 361.5,-277.08 364.46,-274.12 367.42,-274.12 367.42,-274.12 421.08,-274.12 421.08,-274.12 424.04,-274.12 427,-277.08 427,-280.04 427,-280.04 427,-285.96 427,-285.96 427,-288.92 424.04,-291.88 421.08,-291.88"/>
<text text-anchor="start" x="369.5" y="-280.32" font-family="Helvetica,sans-Serif" font-size="9.00">index.js </text>
<text text-anchor="start" x="403.25" y="-280.32" font-family="Helvetica,sans-Serif" font-size="8.00" fill="#808080">80%</text>
</a>
</g>
</g>
<!-- ../../telemetry/dist/telemetry.js -->
<g id="node9" class="node">
<title>../../telemetry/dist/telemetry.js</title>
<g id="a_node9"><a xlink:href="../../telemetry/dist/telemetry.js" xlink:title="telemetry.js">
<path fill="#ffffcc" stroke="black" d="M526.71,-291.88C526.71,-291.88 458.04,-291.88 458.04,-291.88 455.08,-291.88 452.12,-288.92 452.12,-285.96 452.12,-285.96 452.12,-280.04 452.12,-280.04 452.12,-277.08 455.08,-274.12 458.04,-274.12 458.04,-274.12 526.71,-274.12 526.71,-274.12 529.67,-274.12 532.62,-277.08 532.62,-280.04 532.62,-280.04 532.62,-285.96 532.62,-285.96 532.62,-288.92 529.67,-291.88 526.71,-291.88"/>
<text text-anchor="start" x="460.12" y="-280.32" font-family="Helvetica,sans-Serif" font-size="9.00">telemetry.js </text>
<text text-anchor="start" x="508.88" y="-280.32" font-family="Helvetica,sans-Serif" font-size="8.00" fill="#808080">88%</text>
</a>
</g>
</g>
<!-- ../../telemetry/dist/index.js&#45;&gt;../../telemetry/dist/telemetry.js -->
<g id="edge7" class="edge">
<title>../../telemetry/dist/index.js&#45;&gt;../../telemetry/dist/telemetry.js</title>
<path fill="none" stroke="#000000" stroke-width="2" stroke-opacity="0.200000" d="M427.26,-283C432.3,-283 437.6,-283 442.91,-283"/>
<polygon fill="#000000" fill-opacity="0.200000" stroke="#000000" stroke-width="2" stroke-opacity="0.200000" points="442.81,-285.1 448.81,-283 442.81,-280.9 442.81,-285.1"/>
</g>
<!-- node_modules/@babel/runtime&#45;corejs3 -->
<g id="node10" class="node">
<title>node_modules/@babel/runtime&#45;corejs3</title>
<g id="a_node10"><a xlink:href="node_modules/@babel/runtime-corejs3" xlink:title="runtime&#45;corejs3">
<polygon fill="#c40b0a" fill-opacity="0.101961" stroke="black" points="781.25,-157.88 703.47,-157.88 701.5,-155.9 701.5,-140.12 779.28,-140.12 781.25,-142.1 781.25,-157.88"/>
<polyline fill="none" stroke="black" points="779.28,-155.9 701.5,-155.9"/>
<polyline fill="none" stroke="black" points="779.28,-155.9 779.28,-140.12"/>
<polyline fill="none" stroke="black" points="779.28,-155.9 781.25,-157.88"/>
<text text-anchor="start" x="709.5" y="-145.32" font-family="Helvetica,sans-Serif" font-size="9.00" fill="#c40b0a">runtime&#45;corejs3</text>
</a>
</g>
</g>
<!-- ../../telemetry/dist/index.js&#45;&gt;node_modules/@babel/runtime&#45;corejs3 -->
<g id="edge8" class="edge">
<title>../../telemetry/dist/index.js&#45;&gt;node_modules/@babel/runtime&#45;corejs3</title>
<path fill="none" stroke="#000000" stroke-opacity="0.200000" d="M404.79,-273.64C428.27,-251.24 491.7,-194.61 556.62,-170 601.28,-153.07 656.08,-148.73 694.15,-148.06"/>
<polygon fill="#000000" fill-opacity="0.200000" stroke="#000000" stroke-opacity="0.200000" points="694.09,-150.14 700.06,-147.97 694.04,-145.94 694.09,-150.14"/>
</g>
<!-- ../../telemetry/dist/telemetry.js&#45;&gt;../../project&#45;config/dist/index.js -->
<g id="edge10" class="edge">
<title>../../telemetry/dist/telemetry.js&#45;&gt;../../project&#45;config/dist/index.js</title>
<path fill="none" stroke="#000000" stroke-opacity="0.200000" d="M532.82,-283C543.45,-283 554.95,-283 565.54,-283"/>
<polygon fill="#000000" fill-opacity="0.200000" stroke="#000000" stroke-opacity="0.200000" points="565.36,-285.1 571.36,-283 565.36,-280.9 565.36,-285.1"/>
</g>
<!-- ../../telemetry/dist/telemetry.js&#45;&gt;path -->
<g id="edge13" class="edge">
<title>../../telemetry/dist/telemetry.js&#45;&gt;path</title>
<path fill="none" stroke="#000000" stroke-dasharray="5,2" stroke-opacity="0.200000" d="M506.59,-292.35C536.01,-312.72 609.68,-361.44 678.12,-388 687.38,-391.59 697.76,-394.5 707.34,-396.77"/>
<polygon fill="#000000" fill-opacity="0.200000" stroke="#000000" stroke-opacity="0.200000" points="706.84,-399.04 713.16,-398.31 707.77,-394.94 706.84,-399.04"/>
</g>
<!-- ../../telemetry/dist/telemetry.js&#45;&gt;node_modules/@babel/runtime&#45;corejs3 -->
<g id="edge9" class="edge">
<title>../../telemetry/dist/telemetry.js&#45;&gt;node_modules/@babel/runtime&#45;corejs3</title>
<path fill="none" stroke="#000000" stroke-opacity="0.200000" d="M522.3,-273.7C533.06,-270.28 545.38,-266.41 556.62,-263 606.9,-247.75 634.69,-268.78 670.12,-230 682.65,-216.29 667.7,-204.36 678.12,-189 686.17,-177.14 699.03,-168.02 710.97,-161.51"/>
<polygon fill="#000000" fill-opacity="0.200000" stroke="#000000" stroke-opacity="0.200000" points="711.74,-162.96 716.1,-158.34 709.81,-159.23 711.74,-162.96"/>
</g>
<!-- child_process -->
<g id="node11" class="node">
<title>child_process</title>
<g id="a_node11"><a xlink:title="child_process">
<path fill="#ffffcc" stroke="grey" d="M635.96,-193.88C635.96,-193.88 574.79,-193.88 574.79,-193.88 571.83,-193.88 568.88,-190.92 568.88,-187.96 568.88,-187.96 568.88,-182.04 568.88,-182.04 568.88,-179.08 571.83,-176.12 574.79,-176.12 574.79,-176.12 635.96,-176.12 635.96,-176.12 638.92,-176.12 641.88,-179.08 641.88,-182.04 641.88,-182.04 641.88,-187.96 641.88,-187.96 641.88,-190.92 638.92,-193.88 635.96,-193.88"/>
<text text-anchor="middle" x="605.38" y="-181.32" font-family="Helvetica,sans-Serif" font-size="9.00" fill="grey">child_process</text>
</a>
</g>
</g>
<!-- ../../telemetry/dist/telemetry.js&#45;&gt;child_process -->
<g id="edge11" class="edge">
<title>../../telemetry/dist/telemetry.js&#45;&gt;child_process</title>
<path fill="none" stroke="#000000" stroke-dasharray="5,2" stroke-opacity="0.200000" d="M497.92,-273.78C506.81,-256.68 528.15,-219.98 556.62,-200 558.47,-198.7 560.44,-197.51 562.48,-196.42"/>
<polygon fill="#000000" fill-opacity="0.200000" stroke="#000000" stroke-opacity="0.200000" points="563.25,-197.91 567.78,-193.45 561.46,-194.11 563.25,-197.91"/>
</g>
<!-- os -->
<g id="node12" class="node">
<title>os</title>
<g id="a_node12"><a xlink:title="os">
<path fill="#ffffcc" stroke="grey" d="M626.46,-223.88C626.46,-223.88 584.29,-223.88 584.29,-223.88 581.33,-223.88 578.38,-220.92 578.38,-217.96 578.38,-217.96 578.38,-212.04 578.38,-212.04 578.38,-209.08 581.33,-206.12 584.29,-206.12 584.29,-206.12 626.46,-206.12 626.46,-206.12 629.42,-206.12 632.38,-209.08 632.38,-212.04 632.38,-212.04 632.38,-217.96 632.38,-217.96 632.38,-220.92 629.42,-223.88 626.46,-223.88"/>
<text text-anchor="middle" x="605.38" y="-211.32" font-family="Helvetica,sans-Serif" font-size="9.00" fill="grey">os</text>
</a>
</g>
</g>
<!-- ../../telemetry/dist/telemetry.js&#45;&gt;os -->
<g id="edge12" class="edge">
<title>../../telemetry/dist/telemetry.js&#45;&gt;os</title>
<path fill="none" stroke="#000000" stroke-dasharray="5,2" stroke-opacity="0.200000" d="M502.98,-273.83C514.82,-262.92 535.91,-244.71 556.62,-233 561.29,-230.36 566.41,-227.97 571.52,-225.85"/>
<polygon fill="#000000" fill-opacity="0.200000" stroke="#000000" stroke-opacity="0.200000" points="572.14,-227.47 576.94,-223.31 570.59,-223.56 572.14,-227.47"/>
</g>
<!-- node_modules/chalk -->
<g id="node13" class="node">
<title>node_modules/chalk</title>
<g id="a_node13"><a xlink:href="node_modules/chalk" xlink:title="chalk">
<polygon fill="#c40b0a" fill-opacity="0.101961" stroke="black" points="768.38,-93.88 716.35,-93.88 714.38,-91.9 714.38,-76.12 766.4,-76.12 768.38,-78.1 768.38,-93.88"/>
<polyline fill="none" stroke="black" points="766.4,-91.9 714.38,-91.9"/>
<polyline fill="none" stroke="black" points="766.4,-91.9 766.4,-76.12"/>
<polyline fill="none" stroke="black" points="766.4,-91.9 768.38,-93.88"/>
<text text-anchor="start" x="730.5" y="-81.33" font-family="Helvetica,sans-Serif" font-size="9.00" fill="#c40b0a">chalk</text>
</a>
</g>
</g>
<!-- node_modules/execa -->
<g id="node14" class="node">
<title>node_modules/execa</title>
<g id="a_node14"><a xlink:href="node_modules/execa" xlink:title="execa">
<polygon fill="#c40b0a" fill-opacity="0.101961" stroke="black" points="768.38,-63.88 716.35,-63.88 714.38,-61.9 714.38,-46.12 766.4,-46.12 768.38,-48.1 768.38,-63.88"/>
<polyline fill="none" stroke="black" points="766.4,-61.9 714.38,-61.9"/>
<polyline fill="none" stroke="black" points="766.4,-61.9 766.4,-46.12"/>
<polyline fill="none" stroke="black" points="766.4,-61.9 768.38,-63.88"/>
<text text-anchor="start" x="729" y="-51.33" font-family="Helvetica,sans-Serif" font-size="9.00" fill="#c40b0a">execa</text>
</a>
</g>
</g>
<!-- node_modules/terminal&#45;link -->
<g id="node15" class="node">
<title>node_modules/terminal&#45;link</title>
<g id="a_node15"><a xlink:href="node_modules/terminal-link" xlink:title="terminal&#45;link">
<polygon fill="#c40b0a" fill-opacity="0.101961" stroke="black" points="774.5,-33.88 710.22,-33.88 708.25,-31.9 708.25,-16.12 772.53,-16.12 774.5,-18.1 774.5,-33.88"/>
<polyline fill="none" stroke="black" points="772.53,-31.9 708.25,-31.9"/>
<polyline fill="none" stroke="black" points="772.53,-31.9 772.53,-16.12"/>
<polyline fill="none" stroke="black" points="772.53,-31.9 774.5,-33.88"/>
<text text-anchor="start" x="716.25" y="-21.32" font-family="Helvetica,sans-Serif" font-size="9.00" fill="#c40b0a">terminal&#45;link</text>
</a>
</g>
</g>
<!-- node_modules/yargs -->
<g id="node16" class="node">
<title>node_modules/yargs</title>
<g id="a_node16"><a xlink:href="node_modules/yargs" xlink:title="yargs">
<polygon fill="#c40b0a" fill-opacity="0.101961" stroke="black" points="768.38,-123.88 716.35,-123.88 714.38,-121.9 714.38,-106.12 766.4,-106.12 768.38,-108.1 768.38,-123.88"/>
<polyline fill="none" stroke="black" points="766.4,-121.9 714.38,-121.9"/>
<polyline fill="none" stroke="black" points="766.4,-121.9 766.4,-106.12"/>
<polyline fill="none" stroke="black" points="766.4,-121.9 768.38,-123.88"/>
<text text-anchor="start" x="730.12" y="-111.33" font-family="Helvetica,sans-Serif" font-size="9.00" fill="#c40b0a">yargs</text>
</a>
</g>
</g>
<!-- src/commands/storybook.ts -->
<g id="node17" class="node">
<title>src/commands/storybook.ts</title>
<g id="a_node17"><a xlink:href="src/commands/storybook.ts" xlink:title="storybook.ts">
<path fill="#ddfeff" stroke="black" d="M178.83,-118.88C178.83,-118.88 107.92,-118.88 107.92,-118.88 104.96,-118.88 102,-115.92 102,-112.96 102,-112.96 102,-107.04 102,-107.04 102,-104.08 104.96,-101.12 107.92,-101.12 107.92,-101.12 178.83,-101.12 178.83,-101.12 181.79,-101.12 184.75,-104.08 184.75,-107.04 184.75,-107.04 184.75,-112.96 184.75,-112.96 184.75,-115.92 181.79,-118.88 178.83,-118.88"/>
<text text-anchor="start" x="110" y="-107.33" font-family="Helvetica,sans-Serif" font-size="9.00">storybook.ts </text>
<text text-anchor="start" x="161" y="-107.33" font-family="Helvetica,sans-Serif" font-size="8.00" fill="#808080">83%</text>
</a>
</g>
</g>
<!-- src/commands/storybook.ts&#45;&gt;node_modules/terminal&#45;link -->
<g id="edge17" class="edge">
<title>src/commands/storybook.ts&#45;&gt;node_modules/terminal&#45;link</title>
<path fill="none" stroke="#000000" stroke-opacity="0.200000" d="M152.91,-100.94C162.76,-91.04 179.91,-75.48 197.75,-67 277.93,-28.88 304.47,-26 393.25,-26 393.25,-26 393.25,-26 493.38,-26 566.74,-26 652.36,-25.55 701.09,-25.26"/>
<polygon fill="#000000" fill-opacity="0.200000" stroke="#000000" stroke-opacity="0.200000" points="701.02,-27.35 707.01,-25.21 701,-23.15 701.02,-27.35"/>
</g>
<!-- src/commands/storybook.ts&#45;&gt;node_modules/yargs -->
<g id="edge18" class="edge">
<title>src/commands/storybook.ts&#45;&gt;node_modules/yargs</title>
<path fill="none" stroke="#000000" stroke-opacity="0.200000" d="M174.13,-119.31C210.38,-130.1 273.72,-147.14 329.5,-153 380.17,-158.32 393.28,-156.25 444.12,-153 540.15,-146.87 652.62,-129.66 707.24,-120.65"/>
<polygon fill="#000000" fill-opacity="0.200000" stroke="#000000" stroke-opacity="0.200000" points="707.35,-122.6 712.93,-119.55 706.67,-118.46 707.35,-122.6"/>
</g>
<!-- src/lib/colors.ts -->
<g id="node18" class="node">
<title>src/lib/colors.ts</title>
<g id="a_node18"><a xlink:href="src/lib/colors.ts" xlink:title="colors.ts">
<path fill="#ddfeff" stroke="black" d="M422.21,-92.88C422.21,-92.88 366.29,-92.88 366.29,-92.88 363.33,-92.88 360.38,-89.92 360.38,-86.96 360.38,-86.96 360.38,-81.04 360.38,-81.04 360.38,-78.08 363.33,-75.12 366.29,-75.12 366.29,-75.12 422.21,-75.12 422.21,-75.12 425.17,-75.12 428.12,-78.08 428.12,-81.04 428.12,-81.04 428.12,-86.96 428.12,-86.96 428.12,-89.92 425.17,-92.88 422.21,-92.88"/>
<text text-anchor="start" x="368.38" y="-81.33" font-family="Helvetica,sans-Serif" font-size="9.00">colors.ts </text>
<text text-anchor="start" x="404.38" y="-81.33" font-family="Helvetica,sans-Serif" font-size="8.00" fill="#808080">33%</text>
</a>
</g>
</g>
<!-- src/commands/storybook.ts&#45;&gt;src/lib/colors.ts -->
<g id="edge14" class="edge">
<title>src/commands/storybook.ts&#45;&gt;src/lib/colors.ts</title>
<path fill="none" stroke="#000000" stroke-width="2" stroke-opacity="0.200000" d="M155.86,-100.91C166.15,-93.37 182.02,-83.24 197.75,-79 249.26,-65.13 311.18,-70.17 351.33,-76.13"/>
<polygon fill="#000000" fill-opacity="0.200000" stroke="#000000" stroke-width="2" stroke-opacity="0.200000" points="351.8,-78.64 358.06,-77.49 352.45,-74.49 351.8,-78.64"/>
</g>
<!-- src/types.ts -->
<g id="node19" class="node">
<title>src/types.ts</title>
<g id="a_node19"><a xlink:href="src/types.ts" xlink:title="types.ts">
<path fill="#ddfeff" stroke="black" d="M418.46,-144.88C418.46,-144.88 370.04,-144.88 370.04,-144.88 367.08,-144.88 364.12,-141.92 364.12,-138.96 364.12,-138.96 364.12,-133.04 364.12,-133.04 364.12,-130.08 367.08,-127.12 370.04,-127.12 370.04,-127.12 418.46,-127.12 418.46,-127.12 421.42,-127.12 424.38,-130.08 424.38,-133.04 424.38,-133.04 424.38,-138.96 424.38,-138.96 424.38,-141.92 421.42,-144.88 418.46,-144.88"/>
<text text-anchor="start" x="372.12" y="-133.32" font-family="Helvetica,sans-Serif" font-size="9.00">types.ts </text>
<text text-anchor="start" x="405.12" y="-133.32" font-family="Helvetica,sans-Serif" font-size="8.00" fill="#808080">0%</text>
</a>
</g>
</g>
<!-- src/commands/storybook.ts&#45;&gt;src/types.ts -->
<g id="edge15" class="edge">
<title>src/commands/storybook.ts&#45;&gt;src/types.ts</title>
<path fill="none" stroke="#000000" stroke-width="2" stroke-opacity="0.200000" d="M172.05,-100.67C180.23,-98.34 189.26,-96.17 197.75,-95 252.23,-87.49 277.43,-62.09 321.5,-95 331.53,-102.49 320.34,-113.47 329.5,-122 336.48,-128.49 345.75,-132.23 355.06,-134.32"/>
<polygon fill="#000000" fill-opacity="0.200000" stroke="#000000" stroke-width="2" stroke-opacity="0.200000" points="355.65,-136.9 361.92,-135.86 356.37,-132.77 355.65,-136.9"/>
</g>
<!-- src/commands/storybookHandler.ts -->
<g id="node20" class="node">
<title>src/commands/storybookHandler.ts</title>
<g id="a_node20"><a xlink:href="src/commands/storybookHandler.ts" xlink:title="storybookHandler.ts">
<path fill="#ddfeff" stroke="black" d="M307.58,-118.88C307.58,-118.88 203.67,-118.88 203.67,-118.88 200.71,-118.88 197.75,-115.92 197.75,-112.96 197.75,-112.96 197.75,-107.04 197.75,-107.04 197.75,-104.08 200.71,-101.12 203.67,-101.12 203.67,-101.12 307.58,-101.12 307.58,-101.12 310.54,-101.12 313.5,-104.08 313.5,-107.04 313.5,-107.04 313.5,-112.96 313.5,-112.96 313.5,-115.92 310.54,-118.88 307.58,-118.88"/>
<text text-anchor="start" x="205.75" y="-107.33" font-family="Helvetica,sans-Serif" font-size="9.00">storybookHandler.ts </text>
<text text-anchor="start" x="289.75" y="-107.33" font-family="Helvetica,sans-Serif" font-size="8.00" fill="#808080">86%</text>
</a>
</g>
</g>
<!-- src/commands/storybook.ts&#45;&gt;src/commands/storybookHandler.ts -->
<g id="edge16" class="edge">
<title>src/commands/storybook.ts&#45;&gt;src/commands/storybookHandler.ts</title>
<path fill="none" stroke="#000000" stroke-width="2" stroke-dasharray="5,2" stroke-opacity="0.200000" d="M185.11,-110C186.25,-110 187.4,-110 188.55,-110"/>
<polygon fill="#000000" fill-opacity="0.200000" stroke="#000000" stroke-width="2" stroke-opacity="0.200000" points="188.5,-112.1 194.5,-110 188.5,-107.9 188.5,-112.1"/>
</g>
<!-- src/lib/colors.ts&#45;&gt;node_modules/chalk -->
<g id="edge26" class="edge">
<title>src/lib/colors.ts&#45;&gt;node_modules/chalk</title>
<path fill="none" stroke="#000000" stroke-opacity="0.200000" d="M428.34,-84.1C494.27,-84.29 641.32,-84.71 707.26,-84.9"/>
<polygon fill="#000000" fill-opacity="0.200000" stroke="#000000" stroke-opacity="0.200000" points="707.13,-87.01 713.14,-84.92 707.15,-82.81 707.13,-87.01"/>
</g>
<!-- src/commands/storybookHandler.ts&#45;&gt;../../project&#45;config/dist/index.js -->
<g id="edge21" class="edge">
<title>src/commands/storybookHandler.ts&#45;&gt;../../project&#45;config/dist/index.js</title>
<path fill="none" stroke="#000000" stroke-opacity="0.200000" d="M256.42,-119.33C256.23,-153.44 260.7,-271.97 329.5,-321 408.81,-377.52 455.56,-349.7 548.62,-321 564.07,-316.24 579.05,-305.57 589.59,-296.75"/>
<polygon fill="#000000" fill-opacity="0.200000" stroke="#000000" stroke-opacity="0.200000" points="590.52,-297.86 593.68,-292.35 587.77,-294.69 590.52,-297.86"/>
</g>
<!-- src/commands/storybookHandler.ts&#45;&gt;path -->
<g id="edge24" class="edge">
<title>src/commands/storybookHandler.ts&#45;&gt;path</title>
<path fill="none" stroke="#000000" stroke-dasharray="5,2" stroke-opacity="0.200000" d="M256.25,-119.35C255.39,-155.32 257.47,-285.84 329.5,-347 440.04,-440.86 630.99,-421.69 707.38,-409.25"/>
<polygon fill="#000000" fill-opacity="0.200000" stroke="#000000" stroke-opacity="0.200000" points="707.41,-411.2 712.98,-408.14 706.72,-407.06 707.41,-411.2"/>
</g>
<!-- src/commands/storybookHandler.ts&#45;&gt;../../telemetry/dist/index.js -->
<g id="edge22" class="edge">
<title>src/commands/storybookHandler.ts&#45;&gt;../../telemetry/dist/index.js</title>
<path fill="none" stroke="#000000" stroke-opacity="0.200000" d="M263.97,-119.3C286.4,-147.7 354.11,-233.44 381.53,-268.16"/>
<polygon fill="#000000" fill-opacity="0.200000" stroke="#000000" stroke-opacity="0.200000" points="380.5,-269.25 385.87,-272.65 383.8,-266.64 380.5,-269.25"/>
</g>
<!-- src/commands/storybookHandler.ts&#45;&gt;node_modules/execa -->
<g id="edge23" class="edge">
<title>src/commands/storybookHandler.ts&#45;&gt;node_modules/execa</title>
<path fill="none" stroke="#000000" stroke-opacity="0.200000" d="M267.06,-100.79C280.43,-89.63 304.86,-71.42 329.5,-64 464.85,-23.24 636.77,-40.18 707.61,-49.92"/>
<polygon fill="#000000" fill-opacity="0.200000" stroke="#000000" stroke-opacity="0.200000" points="706.91,-52.08 713.14,-50.84 707.49,-47.92 706.91,-52.08"/>
</g>
<!-- src/commands/storybookHandler.ts&#45;&gt;src/lib/colors.ts -->
<g id="edge19" class="edge">
<title>src/commands/storybookHandler.ts&#45;&gt;src/lib/colors.ts</title>
<path fill="none" stroke="#000000" stroke-width="2" stroke-opacity="0.200000" d="M305.56,-100.69C320.53,-97.84 336.84,-94.73 351.3,-91.98"/>
<polygon fill="#000000" fill-opacity="0.200000" stroke="#000000" stroke-width="2" stroke-opacity="0.200000" points="352.53,-93.51 358.03,-90.32 351.75,-89.38 352.53,-93.51"/>
</g>
<!-- src/commands/storybookHandler.ts&#45;&gt;src/types.ts -->
<g id="edge20" class="edge">
<title>src/commands/storybookHandler.ts&#45;&gt;src/types.ts</title>
<path fill="none" stroke="#000000" stroke-width="2" stroke-opacity="0.200000" d="M305.56,-119.31C321.82,-122.41 339.68,-125.8 355.01,-128.72"/>
<polygon fill="#000000" fill-opacity="0.200000" stroke="#000000" stroke-width="2" stroke-opacity="0.200000" points="355.42,-131.32 361.71,-130.38 356.21,-127.19 355.42,-131.32"/>
</g>
<!-- src/index.ts -->
<g id="node21" class="node">
<title>src/index.ts</title>
<g id="a_node21"><a xlink:href="src/index.ts" xlink:title="index.ts">
<path fill="#ddfeff" stroke="black" d="M80.08,-118.88C80.08,-118.88 21.92,-118.88 21.92,-118.88 18.96,-118.88 16,-115.92 16,-112.96 16,-112.96 16,-107.04 16,-107.04 16,-104.08 18.96,-101.12 21.92,-101.12 21.92,-101.12 80.08,-101.12 80.08,-101.12 83.04,-101.12 86,-104.08 86,-107.04 86,-107.04 86,-112.96 86,-112.96 86,-115.92 83.04,-118.88 80.08,-118.88"/>
<text text-anchor="start" x="24" y="-107.33" font-family="Helvetica,sans-Serif" font-size="9.00">index.ts </text>
<text text-anchor="start" x="57.75" y="-107.33" font-family="Helvetica,sans-Serif" font-size="8.00" fill="#808080">100%</text>
</a>
</g>
</g>
<!-- src/index.ts&#45;&gt;src/commands/storybook.ts -->
<g id="edge25" class="edge">
<title>src/index.ts&#45;&gt;src/commands/storybook.ts</title>
<path fill="none" stroke="#000000" stroke-width="2" stroke-opacity="0.200000" d="M86.42,-110C88.61,-110 90.83,-110 93.06,-110"/>
<polygon fill="#000000" fill-opacity="0.200000" stroke="#000000" stroke-width="2" stroke-opacity="0.200000" points="92.68,-112.1 98.68,-110 92.68,-107.9 92.68,-112.1"/>
</g>
</g>
</svg>
